<svg xmlns="http://www.w3.org/2000/svg" viewBox="0 0 48 48" id="trash-bin">
  <g>
    <path d="M5.388 9.842h3.376l2.917 30.377a5.994 5.994 0 0 0 5.99 5.442h12.658a5.993 5.993 0 0 0 5.99-5.442l2.916-30.377h3.377a1 1 0 1 0 0-2H30.415l-1.741-5.35a1.002 1.002 0 0 0-.951-.69h-7.445a1 1 0 0 0-.95.69l-1.743 5.35H5.388a1 1 0 1 0 0 2Zm15.616-6.04h5.992l1.316 4.04h-8.623Zm-2.693 6.04h18.916l-2.899 30.185a4.002 4.002 0 0 1-3.999 3.634H17.671a3.989 3.989 0 0 1-3.896-3.098h13.957a1 1 0 1 0 0-2H13.535l-.003.001-2.38-24.773c2.096-.006 6.855.001 10.24.01h.003a1 1 0 0 0 .002-2c-.927-.003-7.854-.02-10.437-.009l-.187-1.95Z"></path>
    <path d="M18.311 19.076a1 1 0 0 0-1 1v13.352a1 1 0 0 0 2 0V20.076a1 1 0 0 0-1-1zM24 34.428a1 1 0 0 0 1-1V20.076a1 1 0 0 0-2 0v13.352a1 1 0 0 0 1 1zm5.688 0a1 1 0 0 0 1-1V20.076a1 1 0 0 0-2 0v13.352a1 1 0 0 0 1 1zm-.42 5.135a1 1 0 0 0 1 1h1.267a1 1 0 0 0 0-2h-1.267a1 1 0 0 0-1 1zM24 13.801h1.112a1 1 0 0 0 0-2H24a1 1 0 0 0 0 2z"></path>
  </g>
</svg>
